<?xml version="1.0" encoding="iso-8859-1"?>
<!-- Generator: Adobe Illustrator 19.0.0, SVG Export Plug-In . SVG Version: 6.00 Build 0)  -->
<svg version="1.1" id="Capa_1" xmlns="http://www.w3.org/2000/svg" xmlns:xlink="http://www.w3.org/1999/xlink" x="0px" y="0px"
	 viewBox="0 0 512 512" style="enable-background:new 0 0 512 0;" xml:space="preserve">
<g>
	<g>
		<path d="M256,332c-41.906,0-76-34.093-76-76c0-41.907,34.094-76,76-76c18.247,0,35.522,6.462,49.154,18.088l23.843-18.887
			C309.386,160.493,283.49,150,256,150c-58.448,0-106,47.551-106,106c0,58.449,47.552,106,106,106
			c27.49,0,53.386-10.493,72.997-29.202l-23.843-18.887C291.522,325.538,274.247,332,256,332z"/>
	</g>
</g>
<g>
	<g>
		<path d="M256,75c-99.804,0-181,81.196-181,181s81.196,181,181,181s181-81.196,181-181S355.804,75,256,75z M256,302
			c14.094,0,27.25-6.404,36.095-17.569l9.313-11.758l70.549,55.883l-9.314,11.758C336.624,373.161,297.754,392,256,392
			c-74.99,0-136-61.009-136-136s61.01-136,136-136c41.754,0,80.624,18.839,106.643,51.686l9.314,11.758l-70.549,55.883
			l-9.313-11.758C283.25,216.404,270.094,210,256,210c-25.364,0-46,20.636-46,46S230.636,302,256,302z"/>
	</g>
</g>
<g>
	<g>
		<path d="M437.02,74.98C388.667,26.629,324.38,0,256,0S123.333,26.629,74.98,74.98C26.629,123.333,0,187.62,0,256
			s26.629,132.667,74.98,181.02C123.333,485.371,187.62,512,256,512s132.667-26.629,181.02-74.98
			C485.371,388.667,512,324.38,512,256S485.371,123.333,437.02,74.98z M256,467c-116.346,0-211-94.654-211-211S139.654,45,256,45
			s211,94.654,211,211S372.346,467,256,467z"/>
	</g>
</g>
<g>
</g>
<g>
</g>
<g>
</g>
<g>
</g>
<g>
</g>
<g>
</g>
<g>
</g>
<g>
</g>
<g>
</g>
<g>
</g>
<g>
</g>
<g>
</g>
<g>
</g>
<g>
</g>
<g>
</g>
</svg>
